<?xml version="1.0" encoding="UTF-8"?><svg id="Layer_2" xmlns="http://www.w3.org/2000/svg" width="158.03" height="47.27" viewBox="0 0 158.03 47.27"><defs><style>.cls-1{fill:#231f20;}.cls-2{fill:#2957a4;}.cls-3{fill:#fefefe;}.cls-4{fill:#5677b9;}</style></defs><g id="Layer_1-2"><path class="cls-2" d="M17.83,40.8c.21-.25.4-.64,1.47-.9,0,0,36.03-12.24,83.97-9.79,0,0,2.72-.1,1.98,1.09-.43.7-1.24.74-2.78.82,0,0-.52.08-2.56.06,0,0,4.9,1.9-14.45,1.51,0,0,1.71,1.74-5.41,1.24,0,0-19.85-.9-59.96,6.37,0,0-3.15.68-2.27-.39Z"/><path class="cls-1" d="M123.94,24.41s5.61,4.63-1.35,4.39c0,0-1.35.1-2.18-2.68,0,0-2.39-5.47-2.22-7.53-.24.26-1.56,1.86-2.32,3.63-.44,1.02-.62,1.37-1.24,2.35-.35.49-.67.93-.98,1.21-3.07,2.85-3.37-.79-3.37-.79-.64-3.1.96-8.08.96-8.08,1.16-3.44,2.86-2.02,2.86-2.02,2.36.61,1.4,2.88,1.4,2.88-.5,1.73-.95,1.36-.95,1.36-.58.39-.74,1.21-.78,1.74,0,0-.22,1.92.64.45.65-1.32,1.9-3.51,2.81-4.21,0,0,1.34-1.43,2.13-.25,0,0,3.38,6.8,4.61,7.56h0ZM27.99,39.07c1.44,2,2.54,3.42,2.23,3.68-.98.85-5.38-2.59-5.38-2.59-7.65-6.34-11.03-14.43-11.77-16.4-.11-.29.11-.54.11-.54.26-.29.68-.45,1.79-.58,0,0,0,0,0,0-.58-.28-.76-.35-.71-.55.11-.32,1.18-.31,1.18-.31.85-.04,1.46-.09,1.46-.09,1.24-.13,1.87-.25,1.87-.25,2.64-.42,3.67-1.57,3.67-1.57,2.61-2.65-1.58-5.3-1.58-5.3C10.23,8.48,1.67,11.38,1.67,11.38c-.47.13-.82.14-1.33-.03-1.12-.37.87-1.95.87-1.95,5.27-4.37,8.04-3.06,8.04-3.06,10.25.68,14.75,6.04,14.75,6.04,3.57,3.78,2.64,6.79,2.16,7.67-1.75,3.2-5.89,3.28-5.89,3.28-.64.04-1.21.05-1.71.06.48.54.82,1.49.82,1.49.79,2.49,8.6,14.22,8.6,14.22h0ZM14.23,13.41c.57,1.05-.19,2.72-.19,2.72-3.32,6.79-7.47,22.82-8.3,26.1h.02s-.02.05-.05.14c-.07.29-.11.45-.11.45-.05.24-.11.46-.17.66-.09.5-.16,1.13-.14,1.86h-.01c.03.87-.01,1.75-.27,1.87-.75.34-1.13-.66-1.34-1.75-.73-.17-1.33-1.12-1.33-1.12-2.69-1.8-.68-6.81-.68-6.81,1.83-7.26,10.89-22.57,10.89-22.57,1.06-1.71,1.5-1.92,1.7-1.55h0ZM35.11,27.62c-.23.36-.44.77-1.02,1.14,0,0-3,1.83-2.89-.76,0,0,.1-1.43.59-2.77,0,0,1.38-3.5,3.52-5.55.2-.2.37-.22.48-.07.3.41.35.87.58,1.25.06.1.13.2.2.3-.25,1.31-.91,3.81-1.02,5.69-.08.26-.27.5-.42.75h0ZM43,26s-.01-.09-.09-.15c-.2-.14-1.17.3-2.13.88-.15.09-.29.17-.42.24-.35.22-.69.44-.83.56,0,0-.62.49-.55-.62,0-.02,0-.03,0-.04h0c.01-.25.06-.56.07-.9,0,0,.85-3.39,1.22-4.34,0,0,.2-.9.52-1.91,0,0,1.45-1.51-1.21-1.99,0,0-1.27-3.12-2.64,1.8t0,0c-.1-.51-.56-1.29-1.27-1.59-.14-.08-.35-.14-.63-.17-.11-.01-.18.02-.41-.01,0,0-1.27-.44-2.64,1.27-1.45,1.6-5.69,6.67-4.72,10.93,0,0,.52,2.2,2.48,2.19,0,0,2.59.03,4.54-1.82,0,0,.59-.52,1.21-1.28.02.26.06.55.14.83.01.06.03.11.04.16,0,0,.07.49.48.87.3.28.78.48,1.54.38.08-.02.16-.04.24-.06,0,0,2.74-.66,2.67-1.82-.03-.57.17-.69.17-.69,0,0,.17-.1.11-.3,0,0,2.18-1.46,2.11-2.38h0ZM90.32,17.14c1.22.85,3.27,2.74,2.93,4.71,0,0-.59,4.44-7.93,4.29,0,0-.8-.04-.82-.54,0-.37.15-.66.78-.9,0,0,4.77-1.54,1.65-7.28,0,0-1.18.91-2.84,2.2,0,0-1.16,1.28-1.07-.54,0,0,.1-1,.53-1.39,0,0,2.66-1.57,3.54-4.03.44-1.62,2.82-2.99,3.05-1.63.1.62-.6,1-.95,1.44-.79,1,.23,3.09,1.13,3.66h0ZM100.97,13.82c1.28-1.69,2.18-.93,2.18-.93.12.07.38-.01.48-.02,1.7-.13.3,1.54.3,1.54-1.43,1.95-2.73,5.59-2.73,5.59-.33.82-.64,2.15-.64,2.15-.52,2.21,1.81.65,1.81.65.33-.24.64-.57.8-.72.27-.25.5-.28.5-.28.49-.07-.34-2.6-.34-2.6-.35-1-.29-1.05-.29-1.05-.23-1.23.46-1.54.46-1.54.73-.44,1.31.72,1.31.72.65.99,1.23,3.6,1.23,3.6.56,2.31-1.18,2.13-1.18,2.13-.72.14-1.95,1.36-1.95,1.36-1.91,1.58-4.58,1.73-4.58,1.73-2.65.09-2.43-2.24-2.43-2.24-.02-2.52,5.08-10.1,5.08-10.1h0ZM70.48,7.87c-.07.69-.44,1.27-.94,1.57-.72.54-2.2,1.47-2.68,1.34-.48-.13.06-1.66.09-2.09.03-.49.03-.84.13-1.29.16-1.05.99-1.8,1.91-1.7.95.1,1.62,1.07,1.5,2.17h0ZM76.89,14.68s4.32,4.6,4.14,7.79c0,0-.59,4.44-7.93,4.28,0,0-1.82-.27-.03-1.43,0,0,4.77-1.54,1.65-7.28,0,0-2.96,3.47-4.91,5.39v.02c-5.58,5.46-6.68,3.45-6.68,3.45-2.13-3.05-.57-9.72-.57-9.72.83-3.53,2.65-2.28,2.65-2.28,2.67.43,1.67,2.74,1.67,2.74-.34,1.77-.77,1.58-.77,1.58-.82.67-1,3.58-1,3.58.33,1.61-1.1,3.85,3.04.26.98-.99,5.95-6.57,6.74-8.77,0,0,.83-2.14,2.01.39h0ZM49.26,25.75s-.55-.37-.51-2.01c0,0,.15-2.86,2.1-5.15,0,0,.54-.69.98-.77.15-.03.38.19.5,1.06.03.22-.59.26-.37.94,0,0,1.04,2.62,3.21,1.44-.09.54-.19,1.08-.29,1.62-1.14,1.58-3.52,4.3-5.62,2.87h0ZM58.53,1.21s-2.39-3.01-1.98.46c0,0,.33,7.24-.87,16.24-.14-.35-.32-.71-.57-1.06,0,0-2.08-2.77-4.41-2.01,0,0-2.98.94-4.7,5.43,0,0-1.22,3.1-.87,5.44,0,0-.11,6.14,7.36,1.8,0,0,.79-.48,1.72-1.42-.18.77-.47,1.27-.5,2.06,0,0-.27,1.62.47,2.03.28.16.59-.06,1.25-1.64,0,0,5.31-13.64,5.6-19.27,0,0,1.87-2.79-2.49-8.08h0Z"/><path class="cls-2" d="M108.5,30.39c1.47.09,3.11.11,5.4.33,1.19.11,3.02.11,3.28.88.24.71-.66,1.43-2.25,1.74-.81.16-1.32.29-2.05.26-.86-.03-2.71.04-2.76-.96-.04-.62-1.25-.62-2.05-.65-1.61-.06-1.45-.52-1.1-1.07.21-.34.65-.55,1.53-.55h0Z"/><path class="cls-2" d="M158.03,5.99c0-.47-.38-.85-.85-.85h-26.58c-.47,0-.85.39-.85.85v26.58c0,.47.39.85.85.85h26.58c.47,0,.85-.39.85-.85V5.99s0,0,0,0Z"/><path class="cls-4" d="M154.22,23.19c-.42-1-.54-2.29-.61-3.34-1,2.22-2.49,5.64-4.19,5.38-1.01-.16-1.08-1.91-.84-3.61-.67,1.44-1.31,2.94-2.08,3.84,0,0-.06.07-.18.22-.19.23-.66.75-1.09.85-.03,0-.08.02-.13.02-.13.02-.27.01-.41-.02-.34-.11-.66-.45-.94-1.08-.05-.12-.09-.24-.13-.36-.04-.17-.06-.34-.08-.5-.29.49-.64.93-1.01,1.3-1.23,1.21-2.56,1.95-4.13,2.4-1.42.4-3.16.74-4.56.05-1.42-.7-1.67-2.35-1.04-3.75.23-.52.38-.21.28.39-.03.22-.07.43-.08.65-.11,3.59,5.45,1.88,6.98,1,1.14-.66,1.59-1.15,2.15-1.71.75-.76,1.29-2.08,1.43-3.2.31-2.69-3.03-2.67-4.61-2.6-.05,0-.1,0-.15-.02-.18.49-.37.97-.56,1.45-.38.94-.73,1.72-1.1,2.66-.31.78-.81,1.8-1.29,2.47-.29.41-.52.27-.5-.21.04-.85.49-1.79.81-2.54.36-.87.74-1.73,1.1-2.59.72-1.71,1.41-3.45,1.82-5.28.12-.54.87-.45.78.12-.1.66-.24,1.3-.42,1.93.51-.69,1.03-1.38,1.47-2.13.44-.76,1.4-2.81.21-3.43-.97-.51-2.29.31-3.04.92-.83.67-1.75,1.54-2.43,2.63-.32.4-.53.17-.37-.15.61-1.23,1.74-2.42,2.77-3.19.96-.72,2.5-1.68,3.64-.87,1.3.92.8,2.84.18,4.06-.59,1.16-1.36,2.16-2.09,3.2,1.54,0,3.42.21,4.29,1.65.09.15.17.31.23.47.38-1.04.8-1.9,1.11-2.57,1.15-2.54,1.76-3.63,3.26-5.82.21-.3.52.04.34.35-2.11,3.69-3.5,6.5-4.36,9.96-.07.29-.13.57-.15.73,0,0,0,.03,0,.03-.09.64-.13,1.5.16,2.03.06.11.12.19.19.24,0,0,0,0,0,0,.37.28.84-.22,1.08-.55.62-.77,1.16-1.65,1.62-2.6.77-1.55,1.57-3.21,2.07-4.96.15-.55.81-.43.78.2-.05,1.01-.32,1.99-.51,2.96-.13.67-.98,4.72.35,3.46,1.45-1.37,2.38-3.57,3.34-5.53.17-.35.64-.29.7.17.18,1.5.21,2.88.68,4.3.22.65-.45,1.14-.72.51h0Z"/><path class="cls-3" d="M155.75,16.89v4.83c0,1.51-.92,1.82-2.4,1.82h-2.86c-1.48,0-2.4-.3-2.4-1.82v-4.83h1.21v4.82c0,.46.08.77,1.16.77h2.92c1.08,0,1.16-.3,1.16-.77v-4.82h1.21,0ZM142.22,22.41h4.82v1.06h-6.03v-6.58h1.22v5.52h0ZM133.22,20.62h4.12c.8,0,1.01.14,1.01.7v.45c0,.4-.15.64-.88.64h-4.25v-1.79h0ZM138.1,18.98c0,.27-.08.58-.74.58h-4.15v-1.61h4.19c.12,0,.69.02.69.46,0,0,0,.57,0,.57ZM138.78,19.94c.34-.2.54-.52.54-.95v-.53c0-.59-.24-1.57-1.83-1.57h-5.49v6.58h5.57c1.21,0,1.99-.59,1.99-1.51v-.74c0-.66-.26-1.09-.78-1.29h0Z"/></g></svg>